<svg xmlns="http://www.w3.org/2000/svg" version="1" width="600" height="600"><path d="M300 0C134.4 0 0 134.4 0 300s134.4 300 300 300 300-134.4 300-300S465.6 0 300 0zm-14.158 24.872c.169-.008.341.009.51 0l1.276 20.345c-17.304.825-34.145 3.348-50.383 7.462l5.038 19.834c-42.622 10.796-80.585 33.241-110.331 63.775l-14.605-14.285c-11.878 12.186-22.498 25.571-31.76 39.923l-17.092-11.288C115.175 78.46 194.69 29.498 285.842 24.872zm27.806 0c91.363 4.47 171.09 53.455 217.857 125.766l-17.092 11.288c-9.241-14.316-19.851-27.7-31.696-39.86l-14.605 14.222c-29.75-30.55-67.758-52.976-110.395-63.775l5.038-19.834c-16.238-4.114-33.08-6.637-50.383-7.462l1.276-20.345zM300 114.796c8.673-.02 17.347.51 24.49 1.53l-11.16 92.858c23.459 3.42 44.027 15.699 58.226 33.354l74.49-55.867c9.048 11.272 19.306 28.955 24.681 42.347l-85.587 36.607A91.35 91.35 0 0 1 391.837 300c0 11.72-2.179 22.919-6.187 33.227l84.886 36.288c-5.238 13.472-15.389 31.124-24.299 42.475l-73.98-55.357c-14.18 18.059-34.984 30.67-58.737 34.183l10.97 91.327c-14.286 2.2-34.694 2.168-48.98.127l10.97-91.454c-23.77-3.516-44.557-16.167-58.738-34.247l-73.788 55.357c-9.048-11.272-19.306-28.955-24.681-42.347l85.076-36.416c-3.993-10.293-6.186-21.464-6.186-33.163 0-12.186 2.38-23.795 6.697-34.439l-85.396-36.48c5.238-13.471 15.388-31.122 24.299-42.474l74.68 55.931c14.2-17.655 34.768-29.933 58.228-33.354l-11.16-92.73c7.142-1.1 15.816-1.638 24.489-1.658zM54.847 174.235l18.367 9.056c-7.746 15.018-14.08 30.874-18.75 47.449l19.643 5.548a234.562 234.562 0 0 0-8.8 63.712c0 22.105 3.079 43.493 8.8 63.776l-19.643 5.548c4.667 16.548 11.013 32.39 18.75 47.385l-18.367 9.056C35.449 388.054 24.49 345.301 24.49 300c0-45.3 10.959-88.054 30.357-125.765zm490.306 0C564.551 211.946 575.51 254.699 575.51 300c0 45.3-10.959 88.054-30.357 125.765l-18.367-9.056c7.74-15 14.082-30.832 18.75-47.385l-19.643-5.548c5.721-20.283 8.8-41.67 8.8-63.776 0-22.084-3.09-43.446-8.8-63.712l19.643-5.548c-4.668-16.57-11.007-32.434-18.75-47.45l18.367-9.055zM85.587 438.074c9.266 14.351 19.881 27.737 31.76 39.923l14.605-14.285c29.746 30.534 67.71 52.98 110.331 63.775l-5.038 19.834c16.238 4.114 33.08 6.637 50.383 7.462l-1.276 20.345c-91.363-4.47-171.09-53.455-217.857-125.766l17.092-11.288zm428.89 0l17.028 11.288c-46.767 72.311-126.494 121.296-217.857 125.766l-1.276-20.345c17.304-.825 34.145-3.348 50.383-7.462l-5.038-19.834c42.637-10.8 80.644-33.225 110.395-63.775l14.605 14.222a256.462 256.462 0 0 0 31.76-39.86z"/></svg>