<?xml version="1.0" encoding="UTF-8" standalone="no"?>
<svg
   xmlns:dc="http://purl.org/dc/elements/1.1/"
   xmlns:cc="http://creativecommons.org/ns#"
   xmlns:rdf="http://www.w3.org/1999/02/22-rdf-syntax-ns#"
   xmlns:svg="http://www.w3.org/2000/svg"
   xmlns="http://www.w3.org/2000/svg"
   xmlns:sodipodi="http://sodipodi.sourceforge.net/DTD/sodipodi-0.dtd"
   xmlns:inkscape="http://www.inkscape.org/namespaces/inkscape"
   version="1.0"
   width="600"
   height="600"
   id="s1"
   inkscape:version="0.48.1 "
   sodipodi:docname="Flag_of_the_Galactic_Empire.svg">
  <metadata
     id="metadata3782">
    <rdf:RDF>
      <cc:Work
         rdf:about="">
        <dc:format>image/svg+xml</dc:format>
        <dc:type
           rdf:resource="http://purl.org/dc/dcmitype/StillImage" />
        <dc:title></dc:title>
      </cc:Work>
    </rdf:RDF>
  </metadata>
  <defs
     id="defs3780" />
  <sodipodi:namedview
     pagecolor="#ffffff"
     bordercolor="#666666"
     borderopacity="1"
     objecttolerance="10"
     gridtolerance="10"
     guidetolerance="10"
     inkscape:pageopacity="0"
     inkscape:pageshadow="2"
     inkscape:window-width="1440"
     inkscape:window-height="838"
     id="namedview3778"
     showgrid="false"
     inkscape:zoom="0.30759145"
     inkscape:cx="101.17385"
     inkscape:cy="277.46824"
     inkscape:window-x="-8"
     inkscape:window-y="-8"
     inkscape:window-maximized="1"
     inkscape:current-layer="s1"
     fit-margin-top="0"
     fit-margin-left="0"
     fit-margin-right="0"
     fit-margin-bottom="0" />
  <g
     transform="translate(-141.42857,-10.93361)"
     id="l1">
    <path
       style="fill:#000000;fill-opacity:1;stroke:none"
       d="m 441.42857,10.93361 c -165.60008,0 -299.99992,134.4 -300,300 0,165.60008 134.39992,299.99978 300,300 165.60008,0 299.99992,-134.39986 300,-300 0,-165.60008 -134.39992,-300.00008 -300,-300 z"
       id="path3798"
       inkscape:connector-curvature="0" />
  </g>
  <path
     inkscape:connector-curvature="0"
     style="fill:#ffffff;fill-opacity:1;stroke:none"
     d="m 300.00004,14.70335 c -157.48402,0 -285.29694,127.81308 -285.29701,285.29702 0,157.48402 127.81299,285.2968 285.29701,285.29701 157.48402,0 285.29693,-127.81293 285.29701,-285.29701 0,-157.48402 -127.81299,-285.29709 -285.29701,-285.29702 z"
     id="path3798-2" />
  <path
     style="fill:#000000;fill-opacity:1;stroke:none"
     d="M 292.68797,29.50036 C 198.25735,32.01312 115.75632,82.79605 69.28172,158.21911 l 19.21875,11.21875 c 7.23498,-11.59756 15.27715,-22.69594 24.21875,-32.9375 l 21.96875,19 c 31.38556,-35.8813 74.397,-61.38061 123,-70.90625 l -5.71875,-28.8125 c 13.24164,-2.59392 26.82203,-3.95821 40.71875,-4.34375 l 0,-21.9375 z m 14.625,0 0,21.9375 c 13.89672,0.38554 27.47711,1.74983 40.71875,4.34375 l -5.71875,28.8125 c 48.603,9.52564 91.61444,35.02495 123,70.90625 l 21.96875,-19 c 8.9416,10.24156 16.98377,21.33994 24.21875,32.9375 l 19.21875,-11.21875 C 484.24462,82.79605 401.74353,32.01306 307.31297,29.50036 z m -7.3125,100.375 c -11.23164,-8e-5 -22.31252,1.13739 -32.9375,3.21875 l 16.03125,80.6875 c -19.5063,3.837 -36.6307,14.15181 -49.1875,28.59375 l -61.96875,-54.1875 c -14.3613,16.44936 -25.69447,35.61653 -32.90625,56.71875 l 77.96875,26.75 c -3.0163,8.86938 -4.8125,18.45839 -4.8125,28.34375 0,9.96138 1.75156,19.41597 4.8125,28.34375 l -77.75,26.75 c 7.221,21.08224 18.32878,40.28593 32.6875,56.71875 l 61.96875,-54.1875 c 12.54606,14.37426 29.74038,24.51727 49.1875,28.34375 l -16.03125,80.71875 c 10.62506,2.08148 21.70586,3.4375 32.9375,3.4375 11.23164,8e-5 22.31252,-1.35616 32.9375,-3.4375 l -16.03125,-80.71875 c 19.44712,-3.82654 36.64144,-13.96949 49.1875,-28.34375 l 61.96875,54.1875 c 14.35858,-16.43274 25.4665,-35.63665 32.6875,-56.71875 l -77.75,-26.75 c 3.06094,-8.92772 4.8125,-18.38237 4.8125,-28.34375 0,-9.88536 -1.7962,-19.47437 -4.8125,-28.34375 l 77.96875,-26.75 c -7.21178,-21.10238 -18.54481,-40.26939 -32.90625,-56.71875 l -61.96875,54.1875 c -12.5568,-14.44194 -29.6812,-24.75675 -49.1875,-28.59375 l 16.03125,-80.6875 c -10.62506,-2.08136 -21.70586,-3.21875 -32.9375,-3.21875 z M 61.96922,171.03161 c -20.84684,38.35984 -32.6875,82.26739 -32.6875,128.96875 0,46.7013 11.84066,90.60891 32.6875,128.96875 l 19.21875,-11.21875 c -6.41758,-11.89668 -12.02977,-24.29014 -16.46875,-37.25 l 27.65625,-9.375 c -7.65952,-22.32864 -11.875,-46.20934 -11.875,-71.125 0,-24.8572 4.03107,-48.84114 11.65625,-71.125 l -27.6875,-9.375 c 4.46686,-13.07028 10.19075,-25.52736 16.71875,-37.5 L 61.96922,171.03161 z m 476.0625,0 -19.21875,10.96875 c 6.528,11.97264 12.25189,24.42972 16.71875,37.5 l -27.6875,9.375 c 7.62518,22.28378 11.65625,46.2678 11.65625,71.125 0,24.91566 -4.21548,48.79636 -11.875,71.125 l 27.65625,9.375 c -4.43898,12.95986 -10.05117,25.35332 -16.46875,37.25 l 19.21875,11.21875 c 20.84684,-38.35984 32.6875,-82.26753 32.6875,-128.96875 0,-46.7013 -11.84066,-90.60891 -32.6875,-128.96875 z m -449.78125,259.3125 -19.1875,11.1875 c 46.44418,75.57102 129.08206,126.45305 223.625,128.96875 l 0,-21.9375 c -13.89672,-0.43472 -27.47711,-1.99985 -40.71875,-4.59375 l 5.71875,-28.8125 c -48.5994,-9.52706 -91.61634,-34.99588 -123,-70.875 l -21.96875,19.21875 C 103.67414,453.1488 95.49883,442.09869 88.25047,430.34411 z m 423.5,0 c -7.24836,11.75458 -15.42367,22.80469 -24.46875,33.15625 l -21.96875,-19.21875 c -31.38366,35.87912 -74.4006,61.34794 -123,70.875 l 5.71875,28.8125 c -13.24164,2.5939 -26.82203,4.15903 -40.71875,4.59375 l 0,21.9375 c 94.54294,-2.51576 177.18076,-53.39773 223.625,-128.96875 l -19.1875,-11.1875 z"
     id="path3796"
     inkscape:connector-curvature="0" />
</svg>
